<?xml version="1.0" ?><svg id="Capa_1" style="enable-background:new 0 0 439.7 442;" version="1.1" viewBox="0 0 439.7 442" xml:space="preserve" xmlns="http://www.w3.org/2000/svg" xmlns:xlink="http://www.w3.org/1999/xlink"><g><path d="M264.5,378.6c22.2,0,44.1-9.8,58.7-28.6l100.6-129.3c25.2-32.3,19.4-79.1-13-104.3L281.7,15.7C266,3.5,246.5-1.9,226.8,0.6   C207.1,3,189.5,13,177.3,28.7L76.7,157.9c-17.4,22.3-20,51.4-9.3,75.7l-30.2,38.8c-23.5,30.1-18,73.7,12.1,97.2l49.9,39l-98.9,0.5   L0,441.7l278.4,0.3l0.1-32.6l-51.5-0.3l25-31.7C256.2,378.2,260.4,378.6,264.5,378.6z M261.6,41.4L390.9,142   c8.8,6.9,14.4,16.7,15.8,27.8c1.4,11.1-1.6,22-8.5,30.8L297.5,329.9c-6.9,8.8-16.7,14.4-27.8,15.8c-11,1.4-22-1.6-30.8-8.5   L109.7,236.6c-18.2-14.1-21.4-40.4-7.3-58.6L203,48.7C203,48.7,227,17.1,261.6,41.4z M185.8,409l-33.5-0.2l-83-64.9   c-16-12.4-18.8-35.5-6.4-51.5l24.8-31.9c0.7,0.6,1.3,1.2,2,1.7l129.3,100.6c0.7,0.5,1.4,1,2,1.5L185.8,409z"/><rect height="32.6" width="67.8" x="310.8" y="409.4"/><rect height="32.6" width="33.1" x="406.5" y="409.4"/></g></svg>